<svg width="16" height="16" viewBox="0 0 16 16" fill="none" xmlns="http://www.w3.org/2000/svg">
<path d="M10.6665 5.33317V3.99984C10.6665 3.64622 10.526 3.30708 10.276 3.05703C10.0259 2.80698 9.68679 2.6665 9.33317 2.6665L3.99984 2.6665C3.64622 2.6665 3.30708 2.80698 3.05703 3.05703C2.80698 3.30708 2.6665 3.64622 2.6665 3.99984L2.6665 9.33317C2.6665 9.68679 2.80698 10.0259 3.05703 10.276C3.30708 10.526 3.64622 10.6665 3.99984 10.6665H5.33317M6.6665 5.33317L11.9998 5.33317C12.7362 5.33317 13.3332 5.93012 13.3332 6.6665L13.3332 11.9998C13.3332 12.7362 12.7362 13.3332 11.9998 13.3332L6.6665 13.3332C5.93012 13.3332 5.33317 12.7362 5.33317 11.9998L5.33317 6.6665C5.33317 5.93012 5.93012 5.33317 6.6665 5.33317Z" stroke="#121212" stroke-linecap="round" stroke-linejoin="round"/>
</svg>
