<svg width="32" height="32" viewBox="0 0 32 32" fill="none" xmlns="http://www.w3.org/2000/svg">
<path d="M13.3321 27.7022C12.1719 27.4379 11.0575 27.0024 10.0254 26.4102M18.6654 4.29688C21.3163 4.9023 23.6831 6.3898 25.3783 8.51582C27.0735 10.6418 27.9966 13.2804 27.9966 15.9995C27.9966 18.7187 27.0735 21.3572 25.3783 23.4833C23.6831 25.6093 21.3163 27.0968 18.6654 27.7022M6.10406 22.7902C5.37752 21.7331 4.82517 20.5662 4.46806 19.3342M4.16406 13.9995C4.3774 12.7329 4.78806 11.5329 5.36406 10.4329L5.5894 10.0262M9.20806 6.10487C10.4563 5.24738 11.8556 4.63391 13.3321 4.29688" stroke="#98BE00" stroke-width="3" stroke-linecap="round" stroke-linejoin="round"/>
<path d="M12 15.9987L14.6667 18.6654L20 13.332" stroke="#98BE00" stroke-width="3" stroke-linecap="round" stroke-linejoin="round"/>
</svg>
