<svg width="16" height="16" viewBox="0 0 16 16" fill="none" xmlns="http://www.w3.org/2000/svg">
<path d="M10.6665 2.6665L5.33317 2.6665C3.86041 2.6665 2.6665 3.86041 2.6665 5.33317L2.6665 10.6665C2.6665 12.1393 3.86041 13.3332 5.33317 13.3332L10.6665 13.3332C12.1393 13.3332 13.3332 12.1393 13.3332 10.6665L13.3332 5.33317C13.3332 3.86041 12.1393 2.6665 10.6665 2.6665Z" stroke="#121212" stroke-linecap="round" stroke-linejoin="round"/>
<path d="M7.99984 9.99984C9.10441 9.99984 9.99984 9.10441 9.99984 7.99984C9.99984 6.89527 9.10441 5.99984 7.99984 5.99984C6.89527 5.99984 5.99984 6.89527 5.99984 7.99984C5.99984 9.10441 6.89527 9.99984 7.99984 9.99984Z" stroke="#121212" stroke-linecap="round" stroke-linejoin="round"/>
</svg>
