<svg width="143" height="32" viewBox="0 0 143 32" fill="none" xmlns="http://www.w3.org/2000/svg">
<path d="M41.4492 24V10.0078H36.5625V7.08984H49.8867V10.0078H44.9883V24H41.4492ZM53.5439 24.2578C49.7002 24.2578 47.3681 21.7617 47.3681 17.7422V17.7305C47.3681 13.7344 49.7236 11.1797 53.4033 11.1797C57.083 11.1797 59.3916 13.6758 59.3916 17.4727V18.5273H50.7431C50.7783 20.5312 51.8681 21.7031 53.6142 21.7031C55.0205 21.7031 55.8759 20.9297 56.122 20.2266L56.1455 20.1562H59.2861L59.2509 20.2852C58.8642 22.1367 57.1298 24.2578 53.5439 24.2578ZM53.4619 13.7344C52.0556 13.7344 51.0009 14.6719 50.7783 16.3711H56.1103C55.8994 14.6367 54.8798 13.7344 53.4619 13.7344ZM63.9394 24.1992C61.4198 24.1992 59.7206 22.6172 59.7206 20.4023V20.3789C59.7206 18.0938 61.4902 16.7578 64.6073 16.5586L67.7128 16.3711V15.5977C67.7128 14.4844 66.9862 13.793 65.6503 13.793C64.373 13.793 63.5995 14.3906 63.4355 15.1992L63.412 15.3047H60.2831L60.2948 15.1641C60.4823 12.8438 62.4745 11.1797 65.7909 11.1797C69.037 11.1797 71.1347 12.8555 71.1347 15.3867V24H67.7128V22.125H67.6425C66.9277 23.4141 65.5917 24.1992 63.9394 24.1992ZM63.1073 20.2266C63.1073 21.1523 63.8691 21.7031 65.0527 21.7031C66.5878 21.7031 67.7128 20.7188 67.7128 19.4062V18.5039L65.123 18.668C63.7987 18.75 63.1073 19.3125 63.1073 20.2031V20.2266ZM72.3895 24V11.4375H75.8114V13.5469H75.8817C76.3973 12.1172 77.7098 11.1797 79.3973 11.1797C81.1552 11.1797 82.4325 12.1172 82.8544 13.7695H82.9247C83.4872 12.1875 84.9872 11.1797 86.827 11.1797C89.288 11.1797 90.9403 12.8789 90.9403 15.4102V24H87.5184V16.2656C87.5184 14.8125 86.7919 14.0156 85.4677 14.0156C84.1669 14.0156 83.3114 14.9648 83.3114 16.3594V24H80.0184V16.1602C80.0184 14.8125 79.2567 14.0156 77.9911 14.0156C76.6903 14.0156 75.8114 15 75.8114 16.418V24H72.3895ZM94.5272 24L91.1873 11.4375H94.6327L96.5311 20.7539H96.6014L98.828 11.4375H102.109L104.347 20.7539H104.418L106.328 11.4375H109.703L106.375 24H102.73L100.457 15.1172H100.387L98.1248 24H94.5272ZM115.657 24.2578C111.837 24.2578 109.434 21.8086 109.434 17.7188V17.6953C109.434 13.6523 111.895 11.1797 115.645 11.1797C119.407 11.1797 121.88 13.6289 121.88 17.6953V17.7188C121.88 21.8203 119.454 24.2578 115.657 24.2578ZM115.669 21.5742C117.333 21.5742 118.399 20.168 118.399 17.7188V17.6953C118.399 15.2695 117.309 13.8633 115.645 13.8633C113.993 13.8633 112.915 15.2695 112.915 17.6953V17.7188C112.915 20.1797 113.981 21.5742 115.669 21.5742ZM122.689 24V11.4375H126.111V13.6289H126.181C126.556 12.082 127.576 11.1797 129.041 11.1797C129.416 11.1797 129.767 11.2383 130.025 11.3086V14.3203C129.744 14.2031 129.275 14.1328 128.783 14.1328C127.095 14.1328 126.111 15.1406 126.111 16.9688V24H122.689ZM130.589 24V7.08984H134.01V16.4648H134.081L138.323 11.4375H142.202L137.456 16.8398L142.436 24H138.487L134.889 18.8672L134.01 19.8398V24H130.589Z" fill="#222222"/>
<path d="M13.3321 27.7027C12.1719 27.4384 11.0575 27.0029 10.0254 26.4107M18.6654 4.29736C21.3163 4.90279 23.6831 6.39028 25.3783 8.5163C27.0735 10.6423 27.9966 13.2809 27.9966 16C27.9966 18.7192 27.0735 21.3577 25.3783 23.4838C23.6831 25.6098 21.3163 27.0973 18.6654 27.7027M6.10406 22.7907C5.37752 21.7335 4.82517 20.5667 4.46806 19.3347M4.16406 14C4.3774 12.7334 4.78806 11.5334 5.36406 10.4334L5.5894 10.0267M9.20806 6.10536C10.4563 5.24787 11.8556 4.6344 13.3321 4.29736" stroke="#98BE00" stroke-width="3" stroke-linecap="round" stroke-linejoin="round"/>
<path d="M12 15.9999L14.6667 18.6666L20 13.3333" stroke="#98BE00" stroke-width="3" stroke-linecap="round" stroke-linejoin="round"/>
</svg>
