<svg width="173" height="32" viewBox="0 0 173 32" fill="none" xmlns="http://www.w3.org/2000/svg">
<path d="M44.9883 24H41.4492V10.0078H36.5625V7.08984H49.8867V10.0078H44.9883V24ZM53.4619 13.6992C51.9619 13.6992 50.8837 14.8359 50.7666 16.4062H56.0986C56.0283 14.8008 54.9853 13.6992 53.4619 13.6992ZM56.1455 20.1562H59.2861C58.9111 22.6172 56.6611 24.2695 53.5556 24.2695C49.6884 24.2695 47.3681 21.7969 47.3681 17.7773C47.3681 13.7695 49.7119 11.168 53.4267 11.168C57.083 11.168 59.3916 13.6406 59.3916 17.4609V18.5039H50.7314V18.7148C50.7314 20.5078 51.8681 21.7383 53.6142 21.7383C54.8681 21.7383 55.8291 21.1172 56.1455 20.1562ZM65.0527 21.7266C66.5409 21.7266 67.7714 20.7539 67.7714 19.3945V18.4805L65.123 18.6445C63.8456 18.7383 63.1191 19.3125 63.1191 20.2031C63.1191 21.1406 63.8925 21.7266 65.0527 21.7266ZM63.9277 24.1992C61.537 24.1992 59.7206 22.6523 59.7206 20.3906C59.7206 18.1055 61.4784 16.7812 64.6073 16.5938L67.7714 16.4062V15.5742C67.7714 14.4023 66.9511 13.7227 65.662 13.7227C64.3847 13.7227 63.5761 14.3555 63.412 15.2812H60.2831C60.412 12.8438 62.4862 11.168 65.8144 11.168C69.037 11.168 71.1347 12.832 71.1347 15.3633V24H67.83V22.0781H67.7597C67.0566 23.4141 65.498 24.1992 63.9277 24.1992ZM72.3895 24V11.4375H75.6942V13.7109H75.7645C76.2919 12.1992 77.6395 11.2031 79.3505 11.2031C81.1669 11.2031 82.4325 12.1406 82.8544 13.7812H82.9247C83.4872 12.1992 84.9872 11.2031 86.827 11.2031C89.288 11.2031 90.9403 12.8906 90.9403 15.4219V24H87.5184V16.2773C87.5184 14.8242 86.7919 14.0273 85.4677 14.0273C84.1669 14.0273 83.3114 14.9766 83.3114 16.3711V24H80.0184V16.1719C80.0184 14.8242 79.2567 14.0273 77.9911 14.0273C76.6903 14.0273 75.8114 15.0117 75.8114 16.418V24H72.3895ZM109.703 11.4375L106.375 24H102.73L100.457 15.1172H100.387L98.1248 24H94.5272L91.1873 11.4375H94.6327L96.5311 20.7539H96.6014L98.828 11.4375H102.109L104.347 20.7539H104.418L106.328 11.4375H109.703ZM115.657 24.2695C111.86 24.2695 109.434 21.832 109.434 17.707C109.434 13.6406 111.895 11.168 115.657 11.168C119.419 11.168 121.88 13.6289 121.88 17.707C121.88 21.8438 119.454 24.2695 115.657 24.2695ZM115.657 21.6562C117.333 21.6562 118.399 20.2383 118.399 17.7188C118.399 15.2227 117.321 13.7812 115.657 13.7812C113.993 13.7812 112.903 15.2227 112.903 17.7188C112.903 20.2383 113.97 21.6562 115.657 21.6562ZM122.689 24V11.4375H125.994V13.6992H126.064C126.51 12.1055 127.576 11.2383 129.052 11.2383C129.451 11.2383 129.791 11.2969 130.025 11.3672V14.3789C129.744 14.2617 129.275 14.1797 128.783 14.1797C127.095 14.1797 126.111 15.2109 126.111 16.9805V24H122.689ZM134.022 16.4766L138.288 11.4375H142.167L137.374 16.8281L142.401 24H138.464L134.866 18.8906L133.975 19.8516V24H130.553V7.08984H133.975V16.4766H134.022ZM144.652 24.1406C143.597 24.1406 142.765 23.2969 142.765 22.2539C142.765 21.1992 143.597 20.3672 144.652 20.3672C145.695 20.3672 146.539 21.1992 146.539 22.2539C146.539 23.2969 145.695 24.1406 144.652 24.1406ZM159.747 11.4375V24H156.442V21.7383H156.372C155.751 23.3203 154.508 24.2344 152.61 24.2344C149.891 24.2344 148.087 22.4648 148.087 19.5352V11.4375H151.508V18.8203C151.508 20.4961 152.34 21.3867 153.852 21.3867C155.376 21.3867 156.325 20.2969 156.325 18.6328V11.4375H159.747ZM160.779 24V22.0547L167.037 14.1211V14.0508H160.873V11.4375H171.009V13.6055L165.127 21.3164V21.375H171.15V24H160.779Z" fill="#222222"/>
<path d="M13.3321 27.7027C12.1719 27.4384 11.0575 27.0029 10.0254 26.4107M18.6654 4.29736C21.3163 4.90279 23.6831 6.39028 25.3783 8.5163C27.0735 10.6423 27.9966 13.2809 27.9966 16C27.9966 18.7192 27.0735 21.3577 25.3783 23.4838C23.6831 25.6098 21.3163 27.0973 18.6654 27.7027M6.10406 22.7907C5.37752 21.7335 4.82517 20.5667 4.46806 19.3347M4.16406 14C4.3774 12.7334 4.78806 11.5334 5.36406 10.4334L5.5894 10.0267M9.20806 6.10536C10.4563 5.24787 11.8556 4.6344 13.3321 4.29736" stroke="#98BE00" stroke-width="3" stroke-linecap="round" stroke-linejoin="round"/>
<path d="M12 15.9999L14.6667 18.6666L20 13.3333" stroke="#98BE00" stroke-width="3" stroke-linecap="round" stroke-linejoin="round"/>
</svg>
