<svg width="18" height="18" viewBox="0 0 18 18" fill="none" xmlns="http://www.w3.org/2000/svg">
<path d="M12.75 6.75V5.25C12.75 4.85218 12.592 4.47064 12.3107 4.18934C12.0294 3.90804 11.6478 3.75 11.25 3.75H3.75C3.35218 3.75 2.97064 3.90804 2.68934 4.18934C2.40804 4.47064 2.25 4.85218 2.25 5.25V9.75C2.25 10.1478 2.40804 10.5294 2.68934 10.8107C2.97064 11.092 3.35218 11.25 3.75 11.25H5.25M6.75 6.75H14.25C15.0784 6.75 15.75 7.42157 15.75 8.25V12.75C15.75 13.5784 15.0784 14.25 14.25 14.25H6.75C5.92157 14.25 5.25 13.5784 5.25 12.75V8.25C5.25 7.42157 5.92157 6.75 6.75 6.75ZM12 10.5C12 11.3284 11.3284 12 10.5 12C9.67157 12 9 11.3284 9 10.5C9 9.67157 9.67157 9 10.5 9C11.3284 9 12 9.67157 12 10.5Z" stroke="#222222" stroke-width="1.4" stroke-linecap="round" stroke-linejoin="round"/>
</svg>
